# xmcd
#
# Track frame offsets: 
#        150
#        14652
#        25391
#        38665
#        56502
#        73996
#        91331
#        111989
#        125541
#        136129
#        149838
#        163674
#        177344
#        189135
#        202194
#        218027
#        234207
#        257775
#        274239
#        288967
#
# Disc length: 4024 seconds
#
# Revision: 0
# Processed by: cddbd v1.5.2PL0 Copyright (c) Steve Scherf et al.
# Submitted via: ExactAudioCopy v1.3
#
DISCID=340fb614
DTITLE=Dana Gillespie - Hot Stuff
DYEAR=1995
DGENRE=Blues
TTITLE0=Horizontal Boogie
TTITLE1=Lovin' Machine
TTITLE2=Pencil Thin Papa
TTITLE3=Easy Does It
TTITLE4=Meat On Their Bones
TTITLE5=Raise A Little Hell
TTITLE6=Empty Bed Blues
TTITLE7=Play With Your Poodle
TTITLE8=Big Fat Mamas Are Back In Style Again
TTITLE9=Too Many Drivers
TTITLE10=Sailor's Delight
TTITLE11=Built For Comfort
TTITLE12=Fat Meat Is Good Meat
TTITLE13=Hot Stuff
TTITLE14=Tall Skinny Papa
TTITLE15=Big Car
TTITLE16=Spoonful
TTITLE17=Diggin' My Potatoes
TTITLE18=Mainline Baby
TTITLE19=Pint Size Papa
EXTD=
EXTT0=
EXTT1=
EXTT2=
EXTT3=
EXTT4=
EXTT5=
EXTT6=
EXTT7=
EXTT8=
EXTT9=
EXTT10=
EXTT11=
EXTT12=
EXTT13=
EXTT14=
EXTT15=
EXTT16=
EXTT17=
EXTT18=
EXTT19=
PLAYORDER=
